<?xml version="1.0" encoding="utf-8"?>
<!-- Generator: Adobe Illustrator 21.1.0, SVG Export Plug-In . SVG Version: 6.00 Build 0)  -->
<svg version="1.1" id="Capa_1" xmlns="http://www.w3.org/2000/svg" xmlns:xlink="http://www.w3.org/1999/xlink" x="0px" y="0px"
	 viewBox="0 0 20 20" style="enable-background:new 0 0 20 20;" xml:space="preserve">
<style type="text/css">
	.st0{fill:#00953A;}
</style>
<path class="st0" d="M13.3,13.3c-2,2-4.7,1.6-6.6-0.2c-2-1.9-2.1-4.5-0.2-6.5c0.9-0.9,2.2-1.7,3-0.9C9.9,6.1,10,6.6,9.6,7
	c-0.3,0.3-1,0.4-1.6,1c-1.2,1.2-0.7,2.6,0.3,3.5c1,1,2.4,1.4,3.4,0.4c0.9-0.9,0.8-1.3,1.1-1.7c0.6-0.6,1.1-0.2,1.3,0
	C15.1,11,14.1,12.5,13.3,13.3 M10,2.6c-4.2,0-7.6,3.3-7.6,7.4c0,4.1,3.4,7.4,7.6,7.4c4.2,0,7.6-3.3,7.6-7.4
	C17.6,5.9,14.2,2.6,10,2.6"/>
</svg>
